#define max_toggled_pressed_width 10
#define max_toggled_pressed_height 10
static unsigned char max_toggled_pressed_bits[] = {
   0x00, 0x00, 0x00, 0x00, 0xf0, 0x03, 0xf0, 0x03, 0x10, 0x02, 0x7c, 0x02,
   0x44, 0x02, 0xc4, 0x03, 0x44, 0x00, 0x7c, 0x00 };
