#define menu_width 8
#define menu_height 8
static unsigned char menu_bits[] = {
   0x18, 0x3c, 0x7e, 0xe7, 0xe7, 0x7e, 0x3c, 0x18 };
