#define close_pressed_width 14
#define close_pressed_height 14
static unsigned char close_pressed_bits[] = {
   0x00, 0x00, 0x00, 0x00, 0x0c, 0x30, 0x1c, 0x38, 0x38, 0x1c, 0x70, 0x0e,
   0xe0, 0x07, 0xc0, 0x03, 0xc0, 0x03, 0xe0, 0x07, 0x70, 0x0e, 0x38, 0x1c,
   0x1c, 0x38, 0x0c, 0x30 };
