#define max_toggled_pressed_width 14
#define max_toggled_pressed_height 14
static unsigned char max_toggled_pressed_bits[] = {
   0x00, 0x00, 0x00, 0x00, 0xc0, 0x3f, 0xc0, 0x3f, 0x40, 0x20, 0x40, 0x20,
   0xfc, 0x23, 0xfc, 0x23, 0x04, 0x22, 0x04, 0x3e, 0x04, 0x02, 0x04, 0x02,
   0x04, 0x02, 0xfc, 0x03 };
