#define max_toggled_width 12
#define max_toggled_height 12
static unsigned char max_toggled_bits[] = {
   0xf0, 0x0f, 0xf0, 0x0f, 0x10, 0x08, 0x10, 0x08, 0xff, 0x08, 0xff, 0x08,
   0x81, 0x08, 0x81, 0x0f, 0x81, 0x00, 0x81, 0x00, 0x81, 0x00, 0xff, 0x00 };
